<svg width="20" height="21" viewBox="0 0 20 21" fill="none" xmlns="http://www.w3.org/2000/svg">
<path d="M3.54153 4.08355C2.48567 4.08355 1.62981 4.91734 1.62981 5.94562V14.8822C1.62981 15.9104 2.48567 16.7442 3.54153 16.7442H16.5402C17.5953 16.7442 18.4512 15.9104 18.4512 14.8822V5.94562C18.4512 4.91734 17.596 4.08355 16.5402 4.08355H3.54153ZM3.54153 2.96631H16.5402C18.2291 2.96631 19.5981 4.3001 19.5981 5.94562V14.8822C19.5981 16.5277 18.2291 17.8615 16.5402 17.8615H3.54153C1.85188 17.8615 0.48291 16.5277 0.48291 14.8822V5.94562C0.48291 4.3001 1.85257 2.96631 3.54153 2.96631Z" fill="#3C3C3C"/>
<path d="M16.5504 5.53842C16.7814 5.74945 16.7918 6.10324 16.5752 6.32807L12.5076 10.537L16.5628 14.4874C16.7683 14.6874 16.7856 15.0012 16.6145 15.2198L16.5628 15.277C16.4539 15.3821 16.3086 15.4407 16.1573 15.4407C16.006 15.4407 15.8607 15.3821 15.7518 15.277L11.7214 11.3508L10.458 12.6584C10.4036 12.7139 10.3387 12.758 10.267 12.7881C10.1954 12.8182 10.1185 12.8337 10.0407 12.8337C9.96303 12.8337 9.88609 12.8182 9.81445 12.7881C9.7428 12.758 9.67789 12.7139 9.6235 12.6584L8.35936 11.3508L4.32901 15.2763C4.22014 15.3814 4.07477 15.44 3.9235 15.44C3.77223 15.44 3.62686 15.3814 3.51798 15.2763C3.4649 15.2252 3.42267 15.1639 3.39383 15.096C3.36499 15.0282 3.35012 14.9552 3.35012 14.8815C3.35012 14.8078 3.36499 14.7348 3.39383 14.667C3.42267 14.5992 3.4649 14.5378 3.51798 14.4867L7.57315 10.5363L3.50626 6.32738C3.4547 6.27463 3.41432 6.21202 3.38753 6.14329C3.36075 6.07457 3.3481 6.00115 3.35035 5.92742C3.35261 5.85369 3.36971 5.78118 3.40065 5.71422C3.43159 5.64726 3.47571 5.58723 3.53039 5.53773C3.64237 5.43589 3.7895 5.3815 3.94079 5.386C4.09207 5.3905 4.23571 5.45355 4.34143 5.56186L10.0407 11.4598L15.74 5.56186C15.8457 5.45375 15.9892 5.39083 16.1404 5.38633C16.2915 5.38183 16.4385 5.43679 16.5504 5.53842Z" fill="#3C3C3C"/>
</svg>
