<svg width="15" height="20" viewBox="0 0 15 20" fill="none" xmlns="http://www.w3.org/2000/svg">
<path fill-rule="evenodd" clip-rule="evenodd" d="M9.84488 7.22458C9.84492 7.58685 9.77361 7.94558 9.63502 8.28029C9.49643 8.615 9.29327 8.91913 9.03714 9.17533C8.78101 9.43152 8.47693 9.63475 8.14226 9.77343C7.80758 9.91211 7.44887 9.9835 7.0866 9.98355C6.72433 9.9836 6.36561 9.91229 6.0309 9.77369C5.69619 9.6351 5.39206 9.43194 5.13586 9.17581C4.61846 8.65854 4.32773 7.95691 4.32764 7.22527C4.32755 6.49364 4.6181 5.79194 5.13537 5.27453C5.65265 4.75713 6.35428 4.4664 7.08591 4.46631C7.81754 4.46622 8.51925 4.75677 9.03665 5.27405C9.55406 5.79132 9.84479 6.49295 9.84488 7.22458Z" stroke="#3C3C3C" stroke-width="1.17241" stroke-linecap="round" stroke-linejoin="round"/>
<path fill-rule="evenodd" clip-rule="evenodd" d="M13.4311 7.22459C13.4311 3.09701 10.038 1.0177 6.87941 1.05218C3.75665 1.0177 0.655273 3.10252 0.655273 7.22459C0.655273 11.348 6.30217 18.726 6.46631 19.0287C6.63045 19.3308 7.13941 19.3308 7.30355 19.0287C11.3884 13.9184 13.4311 9.98321 13.4311 7.22459Z" stroke="#3C3C3C" stroke-width="1.17241" stroke-linecap="round" stroke-linejoin="round"/>
</svg>
