<svg width="15" height="20" viewBox="0 0 15 20" fill="none" xmlns="http://www.w3.org/2000/svg">
<path d="M1.38876 3.00748C2.42048 1.97093 4.8591 1.5323 6.1522 1.55368C7.44876 1.40334 7.03013 7.14265 6.36807 7.2523C6.36807 7.2523 4.2722 7.51713 4.21289 8.13161C4.13289 8.97093 6.28807 14.1109 7.12324 14.2282C7.57151 14.2909 8.92048 13.2613 8.92048 13.2613C9.96945 12.4716 12.1467 14.7785 13.1694 15.7413C13.617 16.1737 13.595 16.5406 13.1288 17.084C12.3143 17.9958 10.1701 19.4558 9.32186 19.3364C7.26117 19.0468 3.77013 16.1695 2.0922 12.7282C0.20048 8.8461 0.221859 3.88679 1.38876 3.00748Z" stroke="#3C3C3C" stroke-width="1.17241" stroke-linecap="round" stroke-linejoin="round"/>
</svg>
