<?xml version="1.0" standalone="no"?>
<!DOCTYPE svg PUBLIC "-//W3C//DTD SVG 20010904//EN"
 "http://www.w3.org/TR/2001/REC-SVG-20010904/DTD/svg10.dtd">
<svg version="1.0" xmlns="http://www.w3.org/2000/svg"
 width="227.000000pt" height="227.000000pt" viewBox="0 0 227.000000 227.000000"
 preserveAspectRatio="xMidYMid meet">
<metadata>
Created by potrace 1.14, written by Peter Selinger 2001-2017
</metadata>
<g transform="translate(0.000000,227.000000) scale(0.100000,-0.100000)"
fill="#000000" stroke="none">
<path d="M692 1973 c-52 -18 -106 -72 -124 -122 -7 -20 -13 -76 -13 -126 0
-75 4 -98 24 -138 27 -56 77 -93 138 -103 l43 -6 -43 -33 c-23 -18 -56 -57
-72 -86 l-30 -54 -3 -438 -3 -437 -304 0 -305 0 0 -75 0 -75 385 0 385 0 0
491 c0 430 2 494 16 517 40 68 124 90 191 52 81 -45 78 -24 81 -572 l3 -488
74 0 75 0 0 481 c0 530 0 526 63 571 68 48 163 28 207 -44 19 -32 20 -52 20
-520 l0 -488 385 0 385 0 0 75 0 75 -305 0 -304 0 -3 433 -3 432 -30 54 c-16
29 -49 70 -72 91 l-43 37 38 7 c91 15 148 84 165 198 18 130 -17 229 -98 276
-35 20 -50 22 -120 19 -120 -5 -165 -30 -361 -201 -43 -37 -101 -81 -129 -97
-116 -67 -284 -91 -339 -48 -42 33 -32 79 26 110 13 7 59 8 136 4 107 -7 119
-6 141 12 34 28 41 114 13 159 -43 68 -182 95 -290 57z m923 -154 c28 -27 11
-69 -39 -93 -36 -18 -46 -18 -130 -7 -101 14 -133 8 -160 -31 -22 -31 -20
-106 4 -145 l19 -32 -39 -11 c-21 -6 -62 -26 -90 -45 l-52 -35 -37 31 c-39 31
-115 59 -159 59 -22 0 -16 6 34 41 32 23 92 71 133 107 137 119 228 166 351
182 75 10 141 2 165 -21z"/>
</g>
</svg>
