<?xml version="1.0" encoding="utf-8"?>
<!-- Generator: Adobe Illustrator 28.3.0, SVG Export Plug-In . SVG Version: 6.00 Build 0)  -->
<svg version="1.1" id="Layer_1" xmlns="http://www.w3.org/2000/svg" xmlns:xlink="http://www.w3.org/1999/xlink" x="0px" y="0px"
	 viewBox="0 0 1367.31 1367.31" enable-background="new 0 0 1367.31 1367.31" xml:space="preserve">
<g>
	<g>
		<path fill="#FFFFFF" stroke="#FFFFFF" stroke-miterlimit="10" d="M289.42,202.93h-4.1l-1.19-28.56h4.1
			c1.59,6.08,3.44,10.74,5.55,13.95c2.12,3.22,4.74,5.42,7.87,6.61c3.13,1.19,6.94,1.78,11.44,1.78c3.35,0,6.22-0.46,8.6-1.39
			c2.38-0.93,4.23-2.42,5.56-4.5c1.32-2.07,1.98-4.78,1.98-8.13c0-3.88-1.08-7.1-3.24-9.66c-2.16-2.56-4.92-4.83-8.27-6.81
			c-3.35-1.98-6.83-3.99-10.45-6.02c-3.53-2.03-6.92-4.19-10.18-6.48c-3.26-2.29-5.93-5.03-8-8.2c-2.07-3.17-3.11-7.05-3.11-11.64
			c0-4.67,1.15-8.57,3.44-11.71c2.29-3.13,5.33-5.53,9.12-7.21c3.79-1.67,7.98-2.51,12.57-2.51c4.05,0,7.18,0.33,9.39,0.99
			c2.2,0.66,3.94,1.35,5.22,2.05c1.28,0.71,2.45,1.06,3.51,1.06c1.06,0,1.92-0.28,2.58-0.86c0.66-0.57,1.17-1.56,1.52-2.98h3.44
			l0.93,26.45h-3.97c-1.85-7.32-4.32-12.74-7.41-16.27c-3.09-3.52-7.98-5.24-14.68-5.16c-4.5,0-7.98,1.04-10.45,3.11
			c-2.47,2.07-3.7,5.18-3.7,9.32c0,3.26,0.93,6.06,2.78,8.4c1.85,2.34,4.27,4.43,7.27,6.28c3,1.85,6.13,3.75,9.39,5.69
			c2.91,1.68,5.84,3.35,8.79,5.02c2.95,1.68,5.64,3.57,8.07,5.69c2.42,2.12,4.37,4.59,5.82,7.41c1.45,2.82,2.18,6.22,2.18,10.18
			c0,5.11-1.17,9.44-3.51,12.96c-2.34,3.53-5.53,6.2-9.59,8c-4.06,1.81-8.64,2.71-13.75,2.71c-4.59,0-8.31-0.33-11.17-0.99
			c-2.87-0.66-5.12-1.32-6.75-1.99c-1.63-0.66-2.98-0.99-4.03-0.99c-0.88,0-1.68,0.4-2.38,1.19
			C289.9,200.55,289.51,201.61,289.42,202.93z"/>
		<path fill="#FFFFFF" stroke="#FFFFFF" stroke-miterlimit="10" d="M388.74,200.95h-38.09v-3.97c4.05,0,6.99-0.31,8.79-0.93
			c1.81-0.61,2.98-1.87,3.51-3.77c0.53-1.89,0.79-4.78,0.79-8.66v-52.11c0-3.44-0.22-6.15-0.66-8.14c-0.44-1.98-1.57-3.37-3.37-4.16
			c-1.81-0.8-4.83-1.19-9.06-1.19v-3.97h38.09v3.97c-4.15,0-7.14,0.39-8.99,1.19c-1.85,0.79-2.98,2.18-3.37,4.16
			c-0.4,1.99-0.6,4.7-0.6,8.14v24.86h0.66l21.42-20.9c3.09-2.91,5.42-5.38,7.01-7.41c1.59-2.03,2.38-4.01,2.38-5.95
			c0-1.41-0.38-2.45-1.12-3.11s-2.05-0.99-3.9-0.99h-2.12v-3.97h32.4v3.97c-2.47,0.09-4.56,0.44-6.28,1.06
			c-1.72,0.62-3.4,1.57-5.02,2.84c-1.63,1.28-3.64,3.02-6.02,5.22L386.49,154l37.96,37.29c2.2,2.03,4.23,3.48,6.08,4.37
			c1.85,0.88,4.41,1.32,7.67,1.32v3.97h-38.22v-3.97h2.65c1.85,0,3.17-0.2,3.97-0.59c0.8-0.4,1.19-1.08,1.19-2.05
			c0-1.5-0.66-3.17-1.98-5.02c-1.32-1.85-3.4-4.21-6.22-7.08c-2.82-2.86-6.48-6.46-10.98-10.78l-11.64-11.64h-1.19v23.81
			c0,3.7,0.26,6.5,0.79,8.4c0.53,1.9,1.72,3.2,3.57,3.9c1.85,0.71,4.71,1.06,8.6,1.06V200.95z"/>
		<path fill="#FFFFFF" stroke="#FFFFFF" stroke-miterlimit="10" d="M487.79,202.54c-8.73,0-16.25-1.81-22.55-5.42
			c-6.3-3.62-11.15-8.79-14.55-15.54c-3.39-6.74-5.09-14.79-5.09-24.14c0-8.99,1.7-16.86,5.09-23.61
			c3.4-6.74,8.25-11.99,14.55-15.74c6.3-3.75,13.82-5.62,22.55-5.62c8.82,0,16.35,1.83,22.62,5.49c6.26,3.66,11.06,8.78,14.42,15.34
			c3.35,6.57,5.02,14.22,5.02,22.95c0,9.26-1.7,17.35-5.09,24.27c-3.4,6.92-8.22,12.32-14.48,16.2
			C504.02,200.6,496.52,202.54,487.79,202.54z M487.93,196.98c9.43,0,16.46-3.39,21.09-10.18c4.63-6.79,6.94-16.84,6.94-30.15
			c0-7.94-1.19-14.79-3.57-20.57c-2.38-5.77-5.71-10.23-9.98-13.36c-4.28-3.13-9.28-4.7-15.01-4.7c-8.55,0-15.34,3.42-20.37,10.25
			c-5.02,6.83-7.54,16.29-7.54,28.37c0,12.43,2.36,22.26,7.07,29.49C471.28,193.37,478.4,196.98,487.93,196.98z"/>
		<path fill="#FFFFFF" stroke="#FFFFFF" stroke-miterlimit="10" d="M584.6,201.61h-5.29l-30.29-71.55c-1.23-3-2.47-5.36-3.7-7.08
			c-1.23-1.72-2.64-2.98-4.23-3.77c-1.59-0.8-3.57-1.19-5.95-1.19v-3.97h35.44v3.97c-1.15,0-2.42,0.09-3.83,0.26
			c-1.41,0.18-2.62,0.59-3.64,1.26c-1.02,0.66-1.52,1.83-1.52,3.51c0,1.77,0.75,4.45,2.25,8.07l16,39.28l5.16,13.89h0.66l4.63-13.23
			L606.96,129c0.44-0.97,0.79-2,1.06-3.11c0.26-1.1,0.4-2.23,0.4-3.37c0-1.76-0.71-2.95-2.12-3.57c-1.41-0.62-3.66-0.93-6.75-0.93
			v-3.97h27.77v3.97c-1.85,0-3.42,0.2-4.7,0.59c-1.28,0.4-2.42,1.19-3.44,2.38c-1.01,1.19-2.1,2.93-3.24,5.22
			c-1.15,2.29-2.51,5.29-4.1,8.99L584.6,201.61z"/>
		<path fill="#FFFFFF" stroke="#FFFFFF" stroke-miterlimit="10" d="M697.55,200.95h-65.6v-3.97c3.53,0,6.15-0.31,7.87-0.93
			c1.72-0.61,2.84-1.8,3.37-3.57c0.53-1.76,0.79-4.36,0.79-7.8v-53.83c0-3.44-0.26-6.08-0.79-7.94c-0.53-1.85-1.65-3.13-3.37-3.83
			c-1.72-0.7-4.35-1.06-7.87-1.06v-3.97h37.16v3.97c-3.53,0-6.24,0.37-8.13,1.12c-1.9,0.75-3.17,2.05-3.83,3.9
			c-0.66,1.85-0.99,4.5-0.99,7.93v57.4c0,2.91,0.7,4.81,2.12,5.69c1.41,0.88,4.05,1.32,7.93,1.32h6.08c4.41,0,7.98-0.33,10.71-0.99
			c2.73-0.66,4.92-1.78,6.55-3.37c1.63-1.59,2.99-3.68,4.1-6.28c1.1-2.6,2.32-5.8,3.64-9.59h4.23L697.55,200.95z"/>
		<path fill="#FFFFFF" stroke="#FFFFFF" stroke-miterlimit="10" d="M753.09,202.54c-11.73,0-20.28-2.71-25.66-8.14
			c-5.38-5.42-8.07-14.26-8.07-26.52v-38.22c0-3.09-0.35-5.47-1.06-7.14c-0.71-1.67-1.98-2.84-3.83-3.51
			c-1.85-0.66-4.54-0.99-8.07-0.99v-3.97h38.09v3.97c-3.7,0-6.48,0.33-8.33,0.99s-3.09,1.87-3.7,3.64
			c-0.62,1.77-0.93,4.32-0.93,7.67v37.43c0,5.73,0.75,10.56,2.25,14.48c1.5,3.92,4.08,6.9,7.73,8.93s8.62,3.04,14.88,3.04
			c8.64,0,14.88-2.05,18.71-6.15c3.84-4.1,5.76-10.69,5.76-19.77v-33.33c0-4.67-0.26-8.22-0.8-10.65c-0.53-2.42-1.67-4.08-3.44-4.96
			c-1.77-0.88-4.5-1.32-8.2-1.32v-3.97h32.4v3.97c-3.79,0-6.57,0.44-8.33,1.32c-1.77,0.88-2.89,2.49-3.37,4.83
			c-0.49,2.34-0.73,5.8-0.73,10.38v31.87c0,11.99-2.76,21.01-8.27,27.04C774.63,199.52,765.61,202.54,753.09,202.54z"/>
		<path fill="#FFFFFF" stroke="#FFFFFF" stroke-miterlimit="10" d="M885.74,202h-4.37l-54.75-70.75h-3.7l-2.38-5.16
			c-1.67-2.29-3.15-4.01-4.43-5.16c-1.28-1.15-2.6-1.92-3.97-2.32c-1.37-0.39-3.07-0.59-5.09-0.59v-3.97h22.48l48.93,63.88h0.66
			v-42.85c0-4.14-0.26-7.45-0.8-9.92c-0.53-2.47-1.67-4.28-3.44-5.42c-1.77-1.15-4.54-1.72-8.33-1.72v-3.97h31.21v3.97
			c-3.35,0-5.91,0.59-7.67,1.78c-1.77,1.19-2.93,3.09-3.51,5.69c-0.57,2.6-0.86,6.02-0.86,10.25V202z M838,200.95h-30.95v-3.97
			c3.53,0,6.17-0.37,7.94-1.12c1.76-0.75,2.95-2.27,3.57-4.56c0.61-2.29,0.93-5.64,0.93-10.05v-59.25h6.48v59.25
			c0,4.41,0.31,7.73,0.93,9.98c0.61,2.25,1.81,3.77,3.57,4.56c1.76,0.8,4.28,1.19,7.54,1.19V200.95z"/>
		<path fill="#FFFFFF" stroke="#FFFFFF" stroke-miterlimit="10" d="M943.8,200.95h-37.82v-3.97c3.88,0,6.74-0.28,8.6-0.86
			c1.85-0.57,3.04-1.76,3.57-3.57c0.53-1.81,0.79-4.48,0.79-8v-55.41c0-3.26-0.39-5.67-1.19-7.21c-0.79-1.54-2.12-2.58-3.97-3.11
			c-1.85-0.53-4.46-0.79-7.8-0.79v-3.97h36.37c6.88,0,13.29,0.73,19.24,2.18c5.95,1.45,11.13,3.86,15.54,7.21
			c4.41,3.35,7.87,7.76,10.38,13.22c2.51,5.47,3.77,12.26,3.77,20.37c0,7.58-1.12,14.15-3.37,19.7c-2.25,5.55-5.47,10.12-9.66,13.69
			c-4.19,3.57-9.19,6.22-15.01,7.93C957.42,200.09,950.94,200.95,943.8,200.95z M938.9,195.92c8.02,0,14.9-1.08,20.63-3.24
			c5.73-2.16,10.14-5.97,13.23-11.44c3.08-5.47,4.63-13.14,4.63-23.01c0-12.61-3.22-22.22-9.66-28.83
			c-6.43-6.61-16.49-9.92-30.15-9.92c-1.06,0-2.1,0-3.11,0c-1.02,0-2.14,0.09-3.37,0.26v75.78c1.32,0.09,2.62,0.18,3.9,0.26
			C936.28,195.88,937.58,195.92,938.9,195.92z"/>
		<path fill="#FFFFFF" stroke="#FFFFFF" stroke-miterlimit="10" d="M1073.27,200.95h-70.62v-3.97c3.62,0,6.32-0.24,8.13-0.73
			c1.81-0.48,3.04-1.56,3.7-3.24c0.66-1.67,0.99-4.23,0.99-7.67v-55.15c0-3.35-0.33-5.91-0.99-7.67c-0.66-1.76-1.9-2.95-3.7-3.57
			c-1.81-0.62-4.52-0.93-8.13-0.93v-3.97h69.43l0.8,21.69h-4.23c-0.62-4.41-1.57-7.74-2.84-9.99c-1.28-2.25-3.35-3.77-6.22-4.56
			c-2.87-0.79-7.03-1.19-12.5-1.19h-19.44v33.59h15.47c4.05,0,7.14-0.35,9.26-1.06s3.57-2.03,4.37-3.97
			c0.79-1.94,1.19-4.67,1.19-8.2h4.23v30.68h-4.23c0-3.62-0.4-6.3-1.19-8.07c-0.8-1.76-2.25-2.91-4.37-3.44
			c-2.12-0.53-5.2-0.79-9.26-0.79h-15.47v36.37h17.06c5.11,0,9.23-0.24,12.36-0.73c3.13-0.48,5.6-1.39,7.41-2.71
			c1.81-1.32,3.31-3.22,4.5-5.69c1.19-2.47,2.45-5.69,3.77-9.66h4.23L1073.27,200.95z"/>
	</g>
	<g>
		<path fill="#FFFFFF" stroke="#FFFFFF" stroke-miterlimit="10" d="M107.85,1230.46H72.85v-4.38c4.07,0,7.1-0.37,9.09-1.1
			c1.98-0.73,3.32-2.31,4.02-4.74c0.69-2.43,1.04-6.13,1.04-11.09v-56.78c0-3.7-0.35-6.5-1.04-8.39c-0.7-1.9-2.01-3.21-3.95-3.94
			c-1.94-0.73-4.89-1.1-8.86-1.1v-4.38h30.39l31.43,73.42h0.6l31.28-73.42h28.3v4.38c-3.48,0-6.16,0.37-8.04,1.1
			c-1.89,0.73-3.18,2.05-3.87,3.94c-0.69,1.9-1.04,4.65-1.04,8.25v60.87c0,3.5,0.35,6.2,1.04,8.1c0.69,1.9,1.99,3.19,3.87,3.87
			c1.88,0.68,4.62,1.02,8.19,1.02v4.38h-39.62v-4.38c3.87,0,6.75-0.34,8.64-1.02c1.89-0.68,3.13-1.97,3.72-3.87
			c0.6-1.9,0.89-4.6,0.89-8.1v-62.91h-0.6l-34.71,80.28h-3.57l-35.15-80.13h-0.6v58.82c0,4.96,0.35,8.66,1.04,11.09
			c0.69,2.43,2.01,4.01,3.95,4.74c1.94,0.73,4.79,1.1,8.57,1.1V1230.46z"/>
		<path fill="#FFFFFF" stroke="#FFFFFF" stroke-miterlimit="10" d="M254.87,1232.21c-9.93,0-18.45-2.02-25.55-6.06
			c-7.1-4.04-12.54-9.78-16.31-17.22c-3.78-7.44-5.66-16.27-5.66-26.49c0-9.93,1.91-18.61,5.73-26.05s9.28-13.23,16.39-17.37
			c7.1-4.13,15.56-6.2,25.4-6.2c9.83,0,18.27,2.02,25.32,6.06c7.05,4.04,12.49,9.68,16.31,16.93c3.82,7.25,5.73,15.69,5.73,25.32
			c0,10.22-1.91,19.15-5.73,26.78c-3.83,7.64-9.26,13.6-16.31,17.88C273.14,1230.07,264.7,1232.21,254.87,1232.21z M225.08,1221.55
			l-9.38,11.82l-4.62-3.51l9.68-12.26L225.08,1221.55z M255.02,1226.08c10.63,0,18.54-3.75,23.76-11.24
			c5.21-7.49,7.82-18.58,7.82-33.28c0-7.98-1.24-15.18-3.72-21.6c-2.48-6.42-6.11-11.53-10.87-15.33
			c-4.77-3.79-10.63-5.69-17.58-5.69c-9.63,0-17.28,3.77-22.94,11.31c-5.66,7.54-8.49,17.98-8.49,31.31
			c0,8.46,1.09,16.05,3.28,22.77c2.18,6.72,5.63,12.02,10.35,15.91C241.34,1224.13,247.47,1226.08,255.02,1226.08z M281.68,1150.18
			l-51.69,65.39l-3.87-4.23l50.79-64.08L281.68,1150.18z M293.74,1135.44l-7.45,9.49l-4.77-3.51l7.6-9.49L293.74,1135.44z"/>
		<path fill="#FFFFFF" stroke="#FFFFFF" stroke-miterlimit="10" d="M358.84,1230.46h-45.88v-4.38c4.07,0,7.12-0.34,9.16-1.02
			c2.03-0.68,3.43-2.04,4.17-4.08c0.74-2.05,1.12-5.06,1.12-9.05v-59.7c0-3.89-0.37-6.79-1.12-8.68c-0.74-1.9-2.14-3.14-4.17-3.72
			c-2.04-0.58-5.09-0.88-9.16-0.88v-4.38h40.22c8.84,0,15.94,0.9,21.3,2.7c5.36,1.8,9.23,4.38,11.62,7.73
			c2.38,3.36,3.58,7.47,3.58,12.34c0,6.52-1.99,11.41-5.96,14.67c-3.97,3.26-9.04,5.72-15.19,7.37v0.58
			c4.27,0.68,8.36,1.95,12.29,3.8c3.92,1.85,7.17,4.45,9.76,7.81c2.58,3.36,3.87,7.71,3.87,13.07c0,8.27-3.15,14.64-9.46,19.12
			C378.67,1228.22,369.96,1230.46,358.84,1230.46z M341.11,1140.69v36.93h10.13c9.03,0,15.24-1.53,18.62-4.6
			c3.37-3.07,5.06-7.9,5.06-14.52c0-5.74-1.86-10.22-5.59-13.43c-3.72-3.21-10.15-4.82-19.29-4.82c-1.39,0-2.86,0.02-4.39,0.07
			C344.11,1140.38,342.6,1140.5,341.11,1140.69z M351.84,1225.06c3.18,0,6.35-0.19,9.53-0.58s6.08-1.24,8.71-2.56
			c2.63-1.31,4.74-3.31,6.33-5.98c1.59-2.67,2.38-6.35,2.38-11.02c0-5.55-1.32-9.85-3.95-12.92c-2.63-3.07-6.01-5.2-10.13-6.42
			c-4.12-1.21-8.52-1.82-13.18-1.82h-10.43v40.87c1.79,0.1,3.57,0.2,5.36,0.29C348.26,1225.01,350.05,1225.06,351.84,1225.06z"/>
		<path fill="#FFFFFF" stroke="#FFFFFF" stroke-miterlimit="10" d="M482.47,1230.46h-79.54v-4.38c4.07,0,7.12-0.27,9.16-0.8
			c2.03-0.53,3.43-1.72,4.17-3.58c0.74-1.85,1.12-4.67,1.12-8.46v-60.86c0-3.7-0.37-6.52-1.12-8.47c-0.74-1.94-2.14-3.26-4.17-3.94
			c-2.04-0.68-5.09-1.02-9.16-1.02v-4.38h78.2l0.89,23.94h-4.76c-0.7-4.86-1.77-8.54-3.2-11.02c-1.44-2.48-3.78-4.16-7-5.03
			c-3.23-0.88-7.92-1.31-14.08-1.31h-21.9v37.07h17.43c4.56,0,8.04-0.39,10.43-1.17c2.38-0.78,4.02-2.23,4.92-4.38
			c0.89-2.14,1.34-5.16,1.34-9.05h4.77v33.86h-4.77c0-3.99-0.45-6.95-1.34-8.9c-0.89-1.94-2.53-3.21-4.92-3.79
			c-2.38-0.58-5.86-0.88-10.43-0.88h-17.43v40.14h19.22c5.76,0,10.4-0.27,13.93-0.8c3.52-0.53,6.31-1.53,8.34-2.99
			c2.03-1.46,3.72-3.55,5.06-6.28c1.34-2.72,2.75-6.28,4.24-10.66h4.77L482.47,1230.46z"/>
		<path fill="#FFFFFF" stroke="#FFFFFF" stroke-miterlimit="10" d="M568.86,1230.46h-73.88v-4.38c3.97,0,6.92-0.34,8.86-1.02
			c1.94-0.68,3.2-1.99,3.8-3.94c0.59-1.95,0.89-4.82,0.89-8.61v-59.41c0-3.79-0.3-6.71-0.89-8.76c-0.6-2.04-1.86-3.45-3.8-4.23
			c-1.94-0.78-4.89-1.17-8.86-1.17v-4.38h41.86v4.38c-3.97,0-7.03,0.42-9.16,1.24c-2.14,0.83-3.58,2.26-4.32,4.31
			c-0.74,2.04-1.12,4.96-1.12,8.76v63.34c0,3.21,0.79,5.3,2.38,6.28c1.59,0.97,4.56,1.46,8.94,1.46h6.85c4.96,0,8.98-0.36,12.07-1.1
			c3.07-0.73,5.53-1.97,7.37-3.72c1.84-1.75,3.37-4.06,4.62-6.93c1.24-2.87,2.61-6.4,4.1-10.58h4.77L568.86,1230.46z"/>
		<path fill="#FFFFFF" stroke="#FFFFFF" stroke-miterlimit="10" d="M584.95,1232.65h-4.62l-1.34-31.53h4.62
			c1.79,6.71,3.87,11.85,6.26,15.4c2.38,3.55,5.34,5.98,8.86,7.3c3.52,1.31,7.82,1.97,12.88,1.97c3.77,0,7-0.51,9.68-1.53
			c2.68-1.02,4.77-2.67,6.26-4.96c1.49-2.29,2.23-5.28,2.23-8.98c0-4.28-1.22-7.83-3.65-10.66c-2.43-2.82-5.54-5.33-9.31-7.52
			c-3.78-2.19-7.7-4.4-11.77-6.64c-3.97-2.24-7.8-4.62-11.47-7.15c-3.67-2.53-6.68-5.55-9.01-9.05c-2.33-3.5-3.5-7.78-3.5-12.84
			c0-5.16,1.29-9.46,3.87-12.92c2.58-3.45,6.01-6.11,10.28-7.95c4.27-1.85,8.98-2.77,14.15-2.77c4.57,0,8.09,0.36,10.58,1.1
			c2.48,0.73,4.44,1.48,5.88,2.26c1.44,0.78,2.75,1.17,3.95,1.17c1.19,0,2.16-0.31,2.91-0.95c0.74-0.63,1.31-1.73,1.71-3.29h3.87
			l1.04,29.19h-4.47c-2.08-8.08-4.86-14.06-8.34-17.95c-3.48-3.89-8.99-5.79-16.53-5.69c-5.06,0-8.99,1.15-11.77,3.43
			c-2.78,2.29-4.17,5.72-4.17,10.29c0,3.6,1.04,6.69,3.13,9.27c2.09,2.58,4.82,4.89,8.19,6.93c3.37,2.05,6.9,4.14,10.58,6.28
			c3.28,1.85,6.58,3.7,9.9,5.54c3.33,1.85,6.35,3.94,9.09,6.28c2.73,2.34,4.92,5.06,6.56,8.17c1.64,3.12,2.46,6.86,2.46,11.24
			c0,5.64-1.32,10.41-3.95,14.3c-2.63,3.89-6.23,6.84-10.8,8.83s-9.73,2.99-15.49,2.99c-5.16,0-9.36-0.37-12.59-1.1
			c-3.23-0.73-5.76-1.46-7.6-2.19c-1.84-0.73-3.35-1.1-4.54-1.1c-0.99,0-1.89,0.44-2.68,1.31
			C585.49,1230.02,585.05,1231.19,584.95,1232.65z"/>
		<path fill="#FFFFFF" stroke="#FFFFFF" stroke-miterlimit="10" d="M739.71,1231.62h-4.92l-61.67-78.09h-4.17l-2.68-5.69
			c-1.89-2.53-3.55-4.43-4.99-5.69c-1.44-1.26-2.93-2.12-4.47-2.55c-1.54-0.44-3.45-0.66-5.74-0.66v-4.38h25.32l55.11,70.5h0.74
			v-47.29c0-4.57-0.3-8.22-0.89-10.95c-0.6-2.72-1.89-4.72-3.87-5.98c-1.99-1.26-5.12-1.9-9.38-1.9v-4.38h35.15v4.38
			c-3.78,0-6.65,0.66-8.64,1.97c-1.99,1.31-3.3,3.41-3.95,6.28c-0.65,2.87-0.97,6.64-0.97,11.31V1231.62z M685.94,1230.46h-34.86
			v-4.38c3.97,0,6.95-0.41,8.94-1.24c1.98-0.83,3.32-2.51,4.02-5.04c0.69-2.53,1.04-6.23,1.04-11.09v-65.39h7.3v65.39
			c0,4.86,0.35,8.54,1.04,11.02c0.69,2.48,2.04,4.16,4.02,5.03c1.99,0.88,4.82,1.31,8.49,1.31V1230.46z"/>
		<path fill="#FFFFFF" stroke="#FFFFFF" stroke-miterlimit="10" d="M840.1,1230.46h-79.54v-4.38c4.07,0,7.12-0.27,9.16-0.8
			c2.03-0.53,3.43-1.72,4.17-3.58c0.74-1.85,1.12-4.67,1.12-8.46v-60.86c0-3.7-0.37-6.52-1.12-8.47c-0.74-1.94-2.14-3.26-4.17-3.94
			c-2.04-0.68-5.09-1.02-9.16-1.02v-4.38h78.2l0.89,23.94h-4.76c-0.7-4.86-1.77-8.54-3.2-11.02c-1.44-2.48-3.78-4.16-7-5.03
			c-3.23-0.88-7.92-1.31-14.08-1.31h-21.9v37.07h17.43c4.56,0,8.04-0.39,10.43-1.17c2.38-0.78,4.02-2.23,4.92-4.38
			c0.89-2.14,1.34-5.16,1.34-9.05h4.77v33.86h-4.77c0-3.99-0.45-6.95-1.34-8.9c-0.89-1.94-2.53-3.21-4.92-3.79
			c-2.38-0.58-5.86-0.88-10.43-0.88h-17.43v40.14h19.22c5.76,0,10.4-0.27,13.93-0.8c3.52-0.53,6.31-1.53,8.34-2.99
			c2.03-1.46,3.72-3.55,5.06-6.28c1.34-2.72,2.75-6.28,4.24-10.66h4.77L840.1,1230.46z"/>
		<path fill="#FFFFFF" stroke="#FFFFFF" stroke-miterlimit="10" d="M894.18,1230.46h-42.6v-4.38c4.37,0,7.6-0.31,9.68-0.95
			c2.08-0.63,3.43-1.94,4.02-3.94c0.59-1.99,0.89-4.94,0.89-8.83v-61.16c0-3.6-0.45-6.25-1.34-7.95c-0.89-1.7-2.38-2.85-4.47-3.43
			c-2.08-0.58-5.01-0.88-8.79-0.88v-4.38h40.96c7.74,0,14.97,0.8,21.67,2.41c6.7,1.61,12.53,4.26,17.5,7.96
			c4.96,3.7,8.86,8.56,11.69,14.59c2.83,6.03,4.24,13.53,4.24,22.48c0,8.37-1.26,15.62-3.8,21.75c-2.53,6.13-6.16,11.17-10.87,15.1
			c-4.72,3.94-10.35,6.86-16.91,8.76C909.52,1229.51,902.22,1230.46,894.18,1230.46z M888.66,1224.91c9.03,0,16.78-1.19,23.24-3.58
			c6.45-2.38,11.42-6.59,14.89-12.62s5.21-14.5,5.21-25.4c0-13.91-3.63-24.52-10.87-31.82c-7.25-7.3-18.57-10.95-33.96-10.95
			c-1.19,0-2.36,0-3.5,0c-1.14,0-2.41,0.1-3.8,0.29v83.63c1.49,0.1,2.95,0.2,4.39,0.29
			C885.71,1224.86,887.17,1224.91,888.66,1224.91z"/>
		<path fill="#FFFFFF" stroke="#FFFFFF" stroke-miterlimit="10" d="M1000.97,1230.46h-42.9v-4.38c4.57,0,7.87-0.34,9.91-1.02
			c2.03-0.68,3.35-2.07,3.95-4.16c0.59-2.09,0.89-5.28,0.89-9.56v-57.51c0-3.79-0.25-6.79-0.74-8.98c-0.5-2.19-1.77-3.72-3.8-4.6
			c-2.04-0.88-5.44-1.31-10.2-1.31v-4.38h42.9v4.38c-4.67,0-8.04,0.44-10.13,1.31c-2.08,0.88-3.35,2.41-3.8,4.6
			c-0.45,2.19-0.67,5.18-0.67,8.98v27.44h0.74l24.13-23.06c3.47-3.21,6.11-5.94,7.89-8.17c1.79-2.24,2.68-4.43,2.68-6.57
			c0-1.56-0.42-2.7-1.27-3.43c-0.84-0.73-2.31-1.1-4.39-1.1h-2.38v-4.38h36.49v4.38c-2.78,0.1-5.14,0.49-7.07,1.17
			c-1.94,0.68-3.83,1.73-5.66,3.14c-1.84,1.41-4.1,3.33-6.78,5.77l-32.32,29.63l42.75,41.16c2.48,2.24,4.77,3.85,6.85,4.82
			c2.08,0.97,4.96,1.46,8.64,1.46v4.38h-43.05v-4.38h2.98c2.09,0,3.58-0.22,4.47-0.66c0.89-0.44,1.34-1.19,1.34-2.26
			c0-1.65-0.74-3.5-2.23-5.55c-1.49-2.04-3.82-4.65-7-7.81c-3.18-3.16-7.3-7.13-12.36-11.9l-13.11-12.85h-1.34v26.27
			c0,4.09,0.3,7.18,0.89,9.27c0.6,2.09,1.94,3.53,4.02,4.3c2.08,0.78,5.31,1.17,9.68,1.17V1230.46z"/>
		<path fill="#FFFFFF" stroke="#FFFFFF" stroke-miterlimit="10" d="M1140.39,1230.46h-79.54v-4.38c4.07,0,7.12-0.27,9.16-0.8
			c2.03-0.53,3.43-1.72,4.17-3.58c0.74-1.85,1.12-4.67,1.12-8.46v-60.86c0-3.7-0.37-6.52-1.12-8.47c-0.74-1.94-2.14-3.26-4.17-3.94
			c-2.04-0.68-5.09-1.02-9.16-1.02v-4.38h78.2l0.89,23.94h-4.76c-0.7-4.86-1.77-8.54-3.2-11.02c-1.44-2.48-3.78-4.16-7-5.03
			c-3.23-0.88-7.92-1.31-14.08-1.31H1089v37.07h17.43c4.56,0,8.04-0.39,10.43-1.17c2.38-0.78,4.02-2.23,4.92-4.38
			c0.89-2.14,1.34-5.16,1.34-9.05h4.77v33.86h-4.77c0-3.99-0.45-6.95-1.34-8.9c-0.89-1.94-2.53-3.21-4.92-3.79
			c-2.38-0.58-5.86-0.88-10.43-0.88H1089v40.14h19.22c5.76,0,10.4-0.27,13.93-0.8c3.52-0.53,6.31-1.53,8.34-2.99
			c2.03-1.46,3.72-3.55,5.06-6.28c1.34-2.72,2.75-6.28,4.24-10.66h4.77L1140.39,1230.46z"/>
		<path fill="#FFFFFF" stroke="#FFFFFF" stroke-miterlimit="10" d="M1194.91,1230.46h-41.86v-4.38c3.77,0,6.6-0.29,8.49-0.88
			c1.88-0.58,3.15-1.85,3.8-3.8c0.65-1.94,0.97-4.96,0.97-9.05v-62.62c0-2.72-0.28-4.86-0.82-6.42c-0.55-1.56-1.77-2.68-3.65-3.36
			c-1.89-0.68-4.82-1.02-8.79-1.02v-4.38h36.64c7.45,0,14.07,0.71,19.89,2.12c5.81,1.41,10.35,3.85,13.63,7.3
			c3.28,3.45,4.92,8.3,4.92,14.52c0,5.45-1.27,9.88-3.8,13.28c-2.53,3.41-5.71,6.06-9.53,7.95c-3.82,1.9-7.77,3.34-11.84,4.31v0.58
			c1.69,0.97,3.6,2.65,5.73,5.03c2.14,2.39,4.89,5.89,8.27,10.51c3.37,4.62,7.79,10.78,13.26,18.46c2.38,3.21,4.69,5.25,6.93,6.13
			c2.23,0.88,5.04,1.31,8.42,1.31v4.38h-24.58c-4.07-6.03-7.47-11.07-10.2-15.11c-2.73-4.04-5.04-7.44-6.93-10.22
			c-1.89-2.77-3.57-5.23-5.06-7.37c-1.49-2.14-2.98-4.28-4.47-6.42c-1.49-2.24-2.86-3.6-4.1-4.09c-1.24-0.49-3.2-0.73-5.88-0.73
			h-4.17v25.83c0,3.99,0.35,6.98,1.04,8.98c0.69,2,2.09,3.29,4.17,3.87c2.09,0.58,5.26,0.88,9.53,0.88V1230.46z M1180.17,1180.83
			l5.66,0.15c5.46-0.29,10.23-1.17,14.3-2.63c4.07-1.46,7.25-3.75,9.53-6.86c2.28-3.11,3.43-7.25,3.43-12.41
			c0-5.84-1.84-10.44-5.51-13.79c-3.67-3.36-9.53-5.04-17.58-5.04c-1.59,0-3.23,0.02-4.92,0.07c-1.69,0.05-3.33,0.17-4.92,0.36
			V1180.83z"/>
		<path fill="#FFFFFF" stroke="#FFFFFF" stroke-miterlimit="10" d="M1290.69,1230.46h-42.9v-4.38c4.47,0,7.75-0.37,9.83-1.1
			c2.08-0.73,3.43-2.14,4.02-4.23c0.59-2.09,0.89-5.23,0.89-9.41v-57.51c0-3.79-0.25-6.79-0.74-8.98c-0.5-2.19-1.77-3.72-3.8-4.6
			c-2.04-0.88-5.44-1.31-10.2-1.31v-4.38h42.9v4.38c-4.67,0-8.04,0.44-10.13,1.31c-2.08,0.88-3.35,2.41-3.8,4.6
			c-0.45,2.19-0.67,5.18-0.67,8.98v57.51c0,4.18,0.3,7.32,0.89,9.41c0.6,2.09,1.94,3.5,4.02,4.23c2.08,0.73,5.31,1.1,9.68,1.1
			V1230.46z"/>
	</g>
	
		<rect x="24.48" y="24.54" fill="none" stroke="#FFFFFF" stroke-width="3.0393" stroke-miterlimit="10" width="1318.11" height="1318.11"/>
	<line fill="none" stroke="#FFFFFF" stroke-width="3.0393" stroke-miterlimit="10" x1="24.48" y1="24.54" x2="54.84" y2="54.94"/>
	
		<line fill="none" stroke="#FFFFFF" stroke-width="3.0393" stroke-miterlimit="10" x1="24.48" y1="1342.65" x2="54.84" y2="1312.26"/>
	
		<line fill="none" stroke="#FFFFFF" stroke-width="3.0393" stroke-miterlimit="10" x1="1312.19" y1="1312.26" x2="1342.59" y2="1342.65"/>
	
		<line fill="none" stroke="#FFFFFF" stroke-width="3.0393" stroke-miterlimit="10" x1="1342.59" y1="24.54" x2="1312.19" y2="54.94"/>
	
		<rect x="54.84" y="1057.11" fill="none" stroke="#FFFFFF" stroke-width="3.0393" stroke-miterlimit="10" width="1257.35" height="255.15"/>
	
		<rect x="54.84" y="54.94" fill="none" stroke="#FFFFFF" stroke-width="3.0393" stroke-miterlimit="10" width="1257.35" height="197.07"/>
	
		<rect x="284.13" y="282.54" fill="none" stroke="#FFFFFF" stroke-width="3.0393" stroke-miterlimit="10" width="802.13" height="745.77"/>
	
		<rect x="1115.99" y="282.54" fill="none" stroke="#FFFFFF" stroke-width="3.0393" stroke-miterlimit="10" width="196.2" height="745.77"/>
	
		<rect x="54.84" y="282.54" fill="none" stroke="#FFFFFF" stroke-width="3.0393" stroke-miterlimit="10" width="198.39" height="745.77"/>
	<g>
		<g>
			<path fill="#FFFFFF" stroke="#FFFFFF" stroke-miterlimit="10" d="M868.35,1028.31h-51.07V697.96c0-14.45-5.1-26.7-15.32-36.78
				c-10.22-10.07-22.59-15.1-37.11-15.1c-14.98,0-27.7,5.04-38.14,15.1c-10.45,10.08-15.66,22.33-15.66,36.78v330.35h-51.75V697.96
				c0-14.45-5.22-26.7-15.66-36.78c-10.45-10.07-23.15-15.1-38.14-15.1c-14.53,0-26.9,5.04-37.11,15.1
				c-10.22,10.08-15.32,22.33-15.32,36.78v330.35h-51.75V697.96c0-28.02,10.21-51.88,30.64-71.59
				c20.43-19.7,44.94-29.55,73.54-29.55c30.87,0,57.43,11.82,79.67,35.47c21.33-23.64,47.89-35.47,79.67-35.47
				c28.14,0,52.43,10.08,72.86,30.21c20.43,20.14,30.64,43.78,30.64,70.93V1028.31z"/>
		</g>
		<g>
			<g>
				<path fill="#FFFFFF" stroke="#FFFFFF" stroke-miterlimit="10" d="M798.32,606.94c-30.93,0-64.3-16.78-64.3-49.71
					c0-30.44,18.8-37.28,35.18-37.28c15.77,0,35.18,6.21,50.95,6.21c16.98,0,42.46-7.45,42.46-30.44
					c0-20.62-26.59-20.87-39.14-20.87c-63.99,0-103.72,23.46-142.83,57.89c-37.61,32.93-74,71.09-129.8,71.09
					c-36.54,0-70.36-25.96-70.36-83.26c0-63.37,30.93-93.82,91.59-93.82c30.93,0,64.3,16.78,64.3,49.71
					c0,30.44-18.8,37.28-35.18,37.28c-15.77,0-35.18-6.21-50.95-6.21c-16.98,0-42.46,7.45-42.46,30.44
					c0,21.12,27.9,24.96,40.03,24.96c63.69,0,103.12-27.81,141.94-61.98c37.61-32.93,74-71.09,129.8-71.09
					c35.34,0,70.36,23.54,70.36,83.26C889.91,576.5,858.97,606.94,798.32,606.94z"/>
			</g>
		</g>
		<g>
			<rect x="284.13" y="980.71" fill="#FFFFFF" stroke="#FFFFFF" stroke-miterlimit="10" width="268.94" height="47.6"/>
		</g>
		<g>
			<rect x="817.28" y="980.71" fill="#FFFFFF" stroke="#FFFFFF" stroke-miterlimit="10" width="268.98" height="47.6"/>
		</g>
	</g>
</g>
</svg>
