<?xml version="1.0" encoding="utf-8"?>
<!-- Generator: Adobe Illustrator 28.3.0, SVG Export Plug-In . SVG Version: 6.00 Build 0)  -->
<svg version="1.1" id="Layer_1" xmlns="http://www.w3.org/2000/svg" xmlns:xlink="http://www.w3.org/1999/xlink" x="0px" y="0px"
	 viewBox="0 0 500 500" enable-background="new 0 0 500 500" xml:space="preserve">
<g>
	<g>
		<path fill="#010101" d="M120.1,91.75h-1.35l-0.39-9.4h1.35c0.52,2,1.13,3.53,1.83,4.59s1.56,1.78,2.59,2.18
			c1.03,0.39,2.28,0.59,3.76,0.59c1.1,0,2.04-0.15,2.83-0.46s1.39-0.8,1.83-1.48c0.43-0.68,0.65-1.57,0.65-2.68
			c0-1.28-0.36-2.33-1.07-3.18c-0.71-0.84-1.62-1.59-2.72-2.24c-1.1-0.65-2.25-1.31-3.44-1.98c-1.16-0.67-2.28-1.38-3.35-2.13
			c-1.07-0.75-1.95-1.65-2.63-2.7c-0.68-1.04-1.02-2.32-1.02-3.83c0-1.54,0.38-2.82,1.13-3.85c0.75-1.03,1.75-1.82,3-2.37
			c1.25-0.55,2.63-0.83,4.13-0.83c1.33,0,2.36,0.11,3.09,0.33c0.72,0.22,1.3,0.44,1.72,0.67c0.42,0.23,0.81,0.35,1.15,0.35
			c0.35,0,0.63-0.09,0.85-0.28c0.22-0.19,0.38-0.51,0.5-0.98h1.13l0.3,8.7h-1.31c-0.61-2.41-1.42-4.19-2.44-5.35
			c-1.02-1.16-2.63-1.73-4.83-1.7c-1.48,0-2.63,0.34-3.44,1.02c-0.81,0.68-1.22,1.7-1.22,3.07c0,1.07,0.3,2,0.91,2.76
			s1.41,1.46,2.39,2.07s2.02,1.23,3.09,1.87c0.96,0.55,1.92,1.1,2.89,1.65c0.97,0.55,1.86,1.17,2.65,1.87s1.44,1.51,1.92,2.44
			s0.72,2.04,0.72,3.35c0,1.68-0.38,3.1-1.15,4.26c-0.77,1.16-1.82,2.04-3.15,2.63c-1.33,0.59-2.84,0.89-4.53,0.89
			c-1.51,0-2.74-0.11-3.68-0.33c-0.94-0.22-1.68-0.44-2.22-0.65c-0.54-0.22-0.98-0.33-1.33-0.33c-0.29,0-0.55,0.13-0.78,0.39
			C120.26,90.97,120.13,91.32,120.1,91.75z"/>
		<path fill="#010101" d="M152.78,91.1h-12.53V89.8c1.33,0,2.3-0.1,2.89-0.3c0.59-0.2,0.98-0.62,1.15-1.24
			c0.17-0.62,0.26-1.57,0.26-2.85V68.26c0-1.13-0.07-2.02-0.22-2.68c-0.15-0.65-0.52-1.11-1.11-1.37c-0.59-0.26-1.59-0.39-2.98-0.39
			v-1.31h12.53v1.31c-1.36,0-2.35,0.13-2.96,0.39c-0.61,0.26-0.98,0.72-1.11,1.37c-0.13,0.65-0.2,1.54-0.2,2.68v8.18h0.22l7.05-6.88
			c1.02-0.96,1.78-1.77,2.31-2.44c0.52-0.67,0.78-1.32,0.78-1.96c0-0.46-0.12-0.8-0.37-1.02s-0.67-0.33-1.28-0.33h-0.7v-1.31h10.66
			v1.31c-0.81,0.03-1.5,0.15-2.07,0.35c-0.57,0.2-1.12,0.52-1.65,0.94c-0.54,0.42-1.2,0.99-1.98,1.72l-9.44,8.83l12.49,12.27
			c0.72,0.67,1.39,1.15,2,1.44c0.61,0.29,1.45,0.43,2.52,0.43v1.31h-12.58V89.8h0.87c0.61,0,1.04-0.07,1.3-0.2
			c0.26-0.13,0.39-0.36,0.39-0.67c0-0.49-0.22-1.04-0.65-1.65s-1.12-1.38-2.04-2.33c-0.93-0.94-2.13-2.12-3.61-3.55l-3.83-3.83
			h-0.39v7.83c0,1.22,0.09,2.14,0.26,2.76c0.17,0.62,0.57,1.05,1.18,1.28c0.61,0.23,1.55,0.35,2.83,0.35V91.1z"/>
		<path fill="#010101" d="M185.37,91.62c-2.87,0-5.35-0.59-7.42-1.78c-2.07-1.19-3.67-2.89-4.79-5.11
			c-1.12-2.22-1.67-4.87-1.67-7.94c0-2.96,0.56-5.55,1.67-7.77c1.12-2.22,2.71-3.94,4.79-5.18c2.07-1.23,4.55-1.85,7.42-1.85
			c2.9,0,5.38,0.6,7.44,1.81c2.06,1.2,3.64,2.89,4.74,5.05c1.1,2.16,1.65,4.68,1.65,7.55c0,3.05-0.56,5.71-1.68,7.99
			c-1.12,2.28-2.71,4.05-4.76,5.33C190.71,90.99,188.24,91.62,185.37,91.62z M185.41,89.8c3.1,0,5.42-1.12,6.94-3.35
			c1.52-2.23,2.28-5.54,2.28-9.92c0-2.61-0.39-4.87-1.17-6.77c-0.78-1.9-1.88-3.37-3.29-4.39c-1.41-1.03-3.05-1.54-4.94-1.54
			c-2.81,0-5.05,1.12-6.7,3.37c-1.65,2.25-2.48,5.36-2.48,9.33c0,4.09,0.78,7.33,2.33,9.7C179.94,88.61,182.28,89.8,185.41,89.8z"/>
		<path fill="#010101" d="M217.22,91.32h-1.74l-9.96-23.54c-0.41-0.99-0.81-1.76-1.22-2.33c-0.41-0.57-0.87-0.98-1.39-1.24
			c-0.52-0.26-1.18-0.39-1.96-0.39v-1.31h11.66v1.31c-0.38,0-0.8,0.03-1.26,0.09c-0.46,0.06-0.86,0.2-1.2,0.41
			c-0.33,0.22-0.5,0.6-0.5,1.15c0,0.58,0.25,1.46,0.74,2.65l5.26,12.92l1.7,4.57h0.22l1.52-4.35l5.48-13.84
			c0.14-0.32,0.26-0.66,0.35-1.02c0.09-0.36,0.13-0.73,0.13-1.11c0-0.58-0.23-0.97-0.7-1.17c-0.46-0.2-1.2-0.3-2.22-0.3v-1.31h9.14
			v1.31c-0.61,0-1.12,0.07-1.54,0.2c-0.42,0.13-0.8,0.39-1.13,0.78c-0.33,0.39-0.69,0.96-1.07,1.72c-0.38,0.75-0.83,1.74-1.35,2.96
			L217.22,91.32z"/>
		<path fill="#010101" d="M254.38,91.1H232.8V89.8c1.16,0,2.02-0.1,2.59-0.3c0.57-0.2,0.94-0.59,1.11-1.17
			c0.17-0.58,0.26-1.44,0.26-2.57V68.04c0-1.13-0.09-2-0.26-2.61c-0.17-0.61-0.54-1.03-1.11-1.26c-0.57-0.23-1.43-0.35-2.59-0.35
			v-1.31h12.23v1.31c-1.16,0-2.05,0.12-2.68,0.37c-0.62,0.25-1.04,0.67-1.26,1.28s-0.33,1.48-0.33,2.61v18.89
			c0,0.96,0.23,1.58,0.7,1.87c0.46,0.29,1.33,0.44,2.61,0.44h2c1.45,0,2.62-0.11,3.52-0.33c0.9-0.22,1.62-0.59,2.15-1.11
			c0.54-0.52,0.99-1.21,1.35-2.07c0.36-0.86,0.76-1.91,1.2-3.16h1.39L254.38,91.1z"/>
		<path fill="#010101" d="M272.66,91.62c-3.86,0-6.67-0.89-8.44-2.68s-2.65-4.69-2.65-8.72V67.65c0-1.02-0.12-1.8-0.35-2.35
			s-0.65-0.94-1.26-1.15s-1.49-0.33-2.65-0.33v-1.31h12.53v1.31c-1.22,0-2.13,0.11-2.74,0.33s-1.02,0.62-1.22,1.2
			c-0.2,0.58-0.3,1.42-0.3,2.52v12.31c0,1.89,0.25,3.47,0.74,4.76c0.49,1.29,1.34,2.27,2.54,2.94s2.84,1,4.9,1
			c2.84,0,4.9-0.67,6.16-2.02c1.26-1.35,1.89-3.52,1.89-6.51V69.39c0-1.54-0.09-2.7-0.26-3.5c-0.17-0.8-0.55-1.34-1.13-1.63
			c-0.58-0.29-1.48-0.43-2.7-0.43v-1.31h10.66v1.31c-1.25,0-2.16,0.15-2.74,0.43c-0.58,0.29-0.95,0.82-1.11,1.59
			c-0.16,0.77-0.24,1.91-0.24,3.42v10.49c0,3.95-0.91,6.91-2.72,8.9C279.74,90.63,276.78,91.62,272.66,91.62z"/>
		<path fill="#010101" d="M316.3,91.45h-1.44l-18.01-23.28h-1.22l-0.78-1.7c-0.55-0.75-1.04-1.32-1.46-1.7
			c-0.42-0.38-0.86-0.63-1.3-0.76c-0.45-0.13-1.01-0.2-1.68-0.2v-1.31h7.4l16.1,21.02h0.22v-14.1c0-1.36-0.09-2.45-0.26-3.26
			c-0.17-0.81-0.55-1.41-1.13-1.78c-0.58-0.38-1.5-0.57-2.74-0.57v-1.31h10.27v1.31c-1.1,0-1.94,0.2-2.52,0.59
			c-0.58,0.39-0.96,1.02-1.15,1.87c-0.19,0.86-0.28,1.98-0.28,3.37V91.45z M300.59,91.1h-10.18V89.8c1.16,0,2.03-0.12,2.61-0.37
			c0.58-0.25,0.97-0.75,1.17-1.5c0.2-0.75,0.3-1.86,0.3-3.31v-19.5h2.13v19.5c0,1.45,0.1,2.54,0.3,3.29c0.2,0.74,0.59,1.24,1.17,1.5
			c0.58,0.26,1.41,0.39,2.48,0.39V91.1z"/>
		<path fill="#010101" d="M335.4,91.1h-12.44V89.8c1.28,0,2.22-0.09,2.83-0.28s1-0.58,1.17-1.17s0.26-1.47,0.26-2.63V67.47
			c0-1.07-0.13-1.86-0.39-2.37c-0.26-0.51-0.7-0.85-1.3-1.02c-0.61-0.17-1.47-0.26-2.57-0.26v-1.31h11.97
			c2.26,0,4.37,0.24,6.33,0.72c1.96,0.48,3.66,1.27,5.11,2.37c1.45,1.1,2.59,2.55,3.42,4.35c0.83,1.8,1.24,4.03,1.24,6.7
			c0,2.5-0.37,4.66-1.11,6.48c-0.74,1.83-1.8,3.33-3.18,4.5c-1.38,1.17-3.02,2.04-4.94,2.61C339.89,90.82,337.75,91.1,335.4,91.1z
			 M333.79,89.45c2.64,0,4.9-0.36,6.79-1.07c1.88-0.71,3.34-1.96,4.35-3.76c1.01-1.8,1.52-4.32,1.52-7.57
			c0-4.15-1.06-7.31-3.18-9.49s-5.42-3.26-9.92-3.26c-0.35,0-0.69,0-1.02,0c-0.33,0-0.7,0.03-1.11,0.09v24.93
			c0.43,0.03,0.86,0.06,1.28,0.09C332.93,89.43,333.36,89.45,333.79,89.45z"/>
		<path fill="#010101" d="M378,91.1h-23.24V89.8c1.19,0,2.08-0.08,2.68-0.24c0.59-0.16,1-0.51,1.22-1.07
			c0.22-0.55,0.33-1.39,0.33-2.52V67.82c0-1.1-0.11-1.94-0.33-2.52s-0.62-0.97-1.22-1.17s-1.49-0.3-2.68-0.3v-1.31h22.84l0.26,7.14
			h-1.39c-0.2-1.45-0.52-2.55-0.94-3.29c-0.42-0.74-1.1-1.24-2.04-1.5c-0.94-0.26-2.31-0.39-4.11-0.39h-6.4v11.05h5.09
			c1.33,0,2.35-0.12,3.05-0.35s1.17-0.67,1.44-1.31c0.26-0.64,0.39-1.54,0.39-2.7h1.39v10.1h-1.39c0-1.19-0.13-2.07-0.39-2.65
			c-0.26-0.58-0.74-0.96-1.44-1.13s-1.71-0.26-3.05-0.26h-5.09v11.97h5.61c1.68,0,3.04-0.08,4.07-0.24
			c1.03-0.16,1.84-0.46,2.44-0.89c0.59-0.44,1.09-1.06,1.48-1.87c0.39-0.81,0.81-1.87,1.24-3.18h1.39L378,91.1z"/>
	</g>
	<g>
		<path fill="#010101" d="M60.36,429.84H48.84v-1.44c1.34,0,2.34-0.12,2.99-0.36c0.65-0.24,1.09-0.76,1.32-1.56
			c0.23-0.8,0.34-2.02,0.34-3.65v-18.68c0-1.22-0.12-2.14-0.34-2.76c-0.23-0.62-0.66-1.06-1.3-1.3c-0.64-0.24-1.61-0.36-2.92-0.36
			v-1.44h10l10.34,24.16h0.2l10.29-24.16h9.31v1.44c-1.14,0-2.03,0.12-2.65,0.36c-0.62,0.24-1.05,0.67-1.27,1.3
			s-0.34,1.53-0.34,2.71v20.03c0,1.15,0.11,2.04,0.34,2.67c0.23,0.62,0.65,1.05,1.27,1.27c0.62,0.22,1.52,0.34,2.7,0.34v1.44H76.09
			v-1.44c1.27,0,2.22-0.11,2.84-0.34c0.62-0.22,1.03-0.65,1.23-1.27c0.2-0.62,0.29-1.51,0.29-2.67v-20.7h-0.2l-11.42,26.41h-1.18
			l-11.57-26.37h-0.2v19.35c0,1.63,0.11,2.85,0.34,3.65c0.23,0.8,0.66,1.32,1.3,1.56c0.64,0.24,1.58,0.36,2.82,0.36V429.84z"/>
		<path fill="#010101" d="M108.73,430.41c-3.27,0-6.07-0.66-8.41-1.99c-2.34-1.33-4.13-3.22-5.37-5.67
			c-1.24-2.45-1.86-5.35-1.86-8.72c0-3.27,0.63-6.12,1.89-8.57s3.05-4.35,5.39-5.71c2.34-1.36,5.12-2.04,8.36-2.04
			c3.23,0,6.01,0.67,8.33,1.99c2.32,1.33,4.11,3.19,5.37,5.57c1.26,2.39,1.89,5.16,1.89,8.33c0,3.36-0.63,6.3-1.89,8.81
			c-1.26,2.51-3.05,4.47-5.37,5.88C114.74,429.71,111.96,430.41,108.73,430.41z M98.93,426.91l-3.09,3.89l-1.52-1.15l3.19-4.03
			L98.93,426.91z M108.78,428.4c3.5,0,6.1-1.23,7.82-3.7c1.71-2.46,2.57-6.11,2.57-10.95c0-2.62-0.41-4.99-1.22-7.11
			c-0.82-2.11-2.01-3.79-3.58-5.04c-1.57-1.25-3.5-1.87-5.78-1.87c-3.17,0-5.68,1.24-7.55,3.72c-1.86,2.48-2.79,5.92-2.79,10.3
			c0,2.79,0.36,5.28,1.08,7.49c0.72,2.21,1.85,3.96,3.41,5.24C104.28,427.76,106.29,428.4,108.78,428.4z M117.55,403.42
			l-17.01,21.51l-1.27-1.39l16.71-21.08L117.55,403.42z M121.52,398.57l-2.45,3.12l-1.57-1.15l2.5-3.12L121.52,398.57z"/>
		<path fill="#010101" d="M142.94,429.84h-15.09v-1.44c1.34,0,2.34-0.11,3.01-0.34c0.67-0.22,1.13-0.67,1.37-1.34
			c0.25-0.67,0.37-1.67,0.37-2.98V404.1c0-1.28-0.12-2.23-0.37-2.86c-0.25-0.62-0.7-1.03-1.37-1.22c-0.67-0.19-1.67-0.29-3.01-0.29
			v-1.44h13.23c2.91,0,5.24,0.3,7.01,0.89c1.76,0.59,3.04,1.44,3.82,2.54s1.18,2.46,1.18,4.06c0,2.14-0.65,3.75-1.96,4.83
			c-1.31,1.07-2.97,1.88-5,2.42v0.19c1.4,0.22,2.75,0.64,4.04,1.25s2.36,1.46,3.21,2.57c0.85,1.11,1.27,2.54,1.27,4.3
			c0,2.72-1.04,4.82-3.11,6.29C149.46,429.1,146.6,429.84,142.94,429.84z M137.11,400.3v12.15h3.33c2.97,0,5.01-0.5,6.13-1.51
			c1.11-1.01,1.67-2.6,1.67-4.78c0-1.89-0.61-3.36-1.84-4.42s-3.34-1.58-6.35-1.58c-0.46,0-0.94,0.01-1.45,0.02
			C138.09,400.2,137.6,400.24,137.11,400.3z M140.63,428.06c1.05,0,2.09-0.06,3.14-0.19s2-0.41,2.87-0.84
			c0.87-0.43,1.56-1.09,2.08-1.97c0.52-0.88,0.78-2.09,0.78-3.63c0-1.83-0.43-3.24-1.3-4.25c-0.87-1.01-1.98-1.71-3.33-2.11
			c-1.36-0.4-2.8-0.6-4.34-0.6h-3.43v13.45c0.59,0.03,1.18,0.06,1.76,0.1C139.46,428.04,140.05,428.06,140.63,428.06z"/>
		<path fill="#010101" d="M183.62,429.84h-26.17v-1.44c1.34,0,2.34-0.09,3.01-0.26c0.67-0.18,1.13-0.57,1.37-1.18
			c0.25-0.61,0.37-1.54,0.37-2.79v-20.03c0-1.22-0.12-2.14-0.37-2.79c-0.25-0.64-0.7-1.07-1.37-1.3c-0.67-0.22-1.67-0.34-3.01-0.34
			v-1.44h25.73l0.29,7.88h-1.57c-0.23-1.6-0.58-2.81-1.05-3.63c-0.47-0.82-1.24-1.37-2.3-1.66c-1.06-0.29-2.61-0.43-4.63-0.43h-7.2
			v12.2h5.73c1.5,0,2.65-0.13,3.43-0.38c0.78-0.26,1.32-0.74,1.62-1.44c0.29-0.7,0.44-1.7,0.44-2.98h1.57v11.14h-1.57
			c0-1.31-0.15-2.29-0.44-2.93c-0.29-0.64-0.83-1.06-1.62-1.25c-0.78-0.19-1.93-0.29-3.43-0.29h-5.73v13.21h6.32
			c1.89,0,3.42-0.09,4.58-0.26c1.16-0.18,2.08-0.5,2.75-0.98c0.67-0.48,1.22-1.17,1.67-2.07c0.44-0.9,0.91-2.07,1.4-3.51h1.57
			L183.62,429.84z"/>
		<path fill="#010101" d="M212.04,429.84h-24.31v-1.44c1.31,0,2.28-0.11,2.92-0.34c0.64-0.22,1.05-0.66,1.25-1.3
			c0.2-0.64,0.29-1.58,0.29-2.83v-19.55c0-1.25-0.1-2.21-0.29-2.88c-0.2-0.67-0.61-1.14-1.25-1.39c-0.64-0.26-1.61-0.38-2.92-0.38
			v-1.44h13.77v1.44c-1.31,0-2.31,0.14-3.01,0.41c-0.7,0.27-1.18,0.75-1.42,1.42c-0.25,0.67-0.37,1.63-0.37,2.88v20.84
			c0,1.06,0.26,1.75,0.78,2.07c0.52,0.32,1.5,0.48,2.94,0.48h2.25c1.63,0,2.96-0.12,3.97-0.36c1.01-0.24,1.82-0.65,2.43-1.22
			c0.6-0.58,1.11-1.34,1.52-2.28c0.41-0.94,0.86-2.1,1.35-3.48h1.57L212.04,429.84z"/>
		<path fill="#010101" d="M217.33,430.56h-1.52l-0.44-10.37h1.52c0.59,2.21,1.27,3.9,2.06,5.07s1.76,1.97,2.92,2.4
			c1.16,0.43,2.57,0.65,4.24,0.65c1.24,0,2.3-0.17,3.19-0.5c0.88-0.34,1.57-0.88,2.06-1.63c0.49-0.75,0.74-1.74,0.74-2.95
			c0-1.41-0.4-2.58-1.2-3.51s-1.82-1.75-3.06-2.47c-1.24-0.72-2.53-1.45-3.87-2.18c-1.31-0.74-2.57-1.52-3.77-2.35
			c-1.21-0.83-2.2-1.83-2.97-2.98s-1.15-2.56-1.15-4.23c0-1.7,0.42-3.11,1.27-4.25c0.85-1.14,1.98-2.01,3.38-2.62
			c1.4-0.61,2.96-0.91,4.66-0.91c1.5,0,2.66,0.12,3.48,0.36c0.82,0.24,1.46,0.49,1.94,0.74c0.47,0.26,0.91,0.38,1.3,0.38
			c0.39,0,0.71-0.1,0.96-0.31s0.43-0.57,0.56-1.08h1.27l0.34,9.61h-1.47c-0.69-2.66-1.6-4.63-2.74-5.91
			c-1.14-1.28-2.96-1.9-5.44-1.87c-1.67,0-2.96,0.38-3.87,1.13c-0.92,0.75-1.37,1.88-1.37,3.39c0,1.18,0.34,2.2,1.03,3.05
			c0.69,0.85,1.58,1.61,2.7,2.28c1.11,0.67,2.27,1.36,3.48,2.07c1.08,0.61,2.16,1.22,3.26,1.82c1.09,0.61,2.09,1.3,2.99,2.07
			s1.62,1.67,2.16,2.69c0.54,1.03,0.81,2.26,0.81,3.7c0,1.86-0.43,3.43-1.3,4.71c-0.87,1.28-2.05,2.25-3.55,2.91s-3.2,0.98-5.1,0.98
			c-1.7,0-3.08-0.12-4.14-0.36s-1.9-0.48-2.5-0.72c-0.61-0.24-1.1-0.36-1.5-0.36c-0.33,0-0.62,0.14-0.88,0.43
			C217.51,429.69,217.37,430.08,217.33,430.56z"/>
		<path fill="#010101" d="M268.25,430.22h-1.62l-20.29-25.69h-1.37l-0.88-1.87c-0.62-0.83-1.17-1.46-1.64-1.87
			c-0.47-0.42-0.96-0.7-1.47-0.84c-0.51-0.14-1.14-0.22-1.89-0.22v-1.44h8.33l18.13,23.2h0.25v-15.56c0-1.5-0.1-2.71-0.29-3.6
			c-0.2-0.9-0.62-1.55-1.27-1.97c-0.65-0.42-1.68-0.62-3.09-0.62v-1.44h11.57v1.44c-1.24,0-2.19,0.22-2.84,0.65
			c-0.65,0.43-1.09,1.12-1.3,2.07s-0.32,2.18-0.32,3.72V430.22z M250.56,429.84h-11.47v-1.44c1.31,0,2.29-0.14,2.94-0.41
			c0.65-0.27,1.09-0.82,1.32-1.66c0.23-0.83,0.34-2.05,0.34-3.65v-21.51h2.4v21.51c0,1.6,0.11,2.81,0.34,3.63s0.67,1.37,1.32,1.66
			s1.58,0.43,2.79,0.43V429.84z"/>
		<path fill="#010101" d="M301.29,429.84h-26.17v-1.44c1.34,0,2.34-0.09,3.01-0.26c0.67-0.18,1.13-0.57,1.37-1.18
			c0.25-0.61,0.37-1.54,0.37-2.79v-20.03c0-1.22-0.12-2.14-0.37-2.79c-0.25-0.64-0.7-1.07-1.37-1.3c-0.67-0.22-1.67-0.34-3.01-0.34
			v-1.44h25.73l0.29,7.88h-1.57c-0.23-1.6-0.58-2.81-1.05-3.63c-0.47-0.82-1.24-1.37-2.3-1.66c-1.06-0.29-2.61-0.43-4.63-0.43h-7.2
			v12.2h5.73c1.5,0,2.65-0.13,3.43-0.38c0.78-0.26,1.32-0.74,1.62-1.44c0.29-0.7,0.44-1.7,0.44-2.98h1.57v11.14h-1.57
			c0-1.31-0.15-2.29-0.44-2.93c-0.29-0.64-0.83-1.06-1.62-1.25c-0.78-0.19-1.93-0.29-3.43-0.29h-5.73v13.21h6.32
			c1.89,0,3.42-0.09,4.58-0.26c1.16-0.18,2.08-0.5,2.75-0.98c0.67-0.48,1.22-1.17,1.67-2.07c0.44-0.9,0.91-2.07,1.4-3.51h1.57
			L301.29,429.84z"/>
		<path fill="#010101" d="M319.08,429.84h-14.02v-1.44c1.44,0,2.5-0.1,3.19-0.31c0.69-0.21,1.13-0.64,1.32-1.3
			c0.2-0.66,0.29-1.62,0.29-2.91v-20.12c0-1.18-0.15-2.06-0.44-2.62c-0.29-0.56-0.78-0.94-1.47-1.13c-0.69-0.19-1.65-0.29-2.89-0.29
			v-1.44h13.48c2.55,0,4.92,0.26,7.13,0.79c2.21,0.53,4.12,1.4,5.76,2.62c1.63,1.22,2.92,2.82,3.85,4.8c0.93,1.99,1.4,4.45,1.4,7.4
			c0,2.75-0.42,5.14-1.25,7.16c-0.83,2.02-2.03,3.67-3.58,4.97c-1.55,1.3-3.41,2.26-5.56,2.88S321.72,429.84,319.08,429.84z
			 M317.26,428.01c2.97,0,5.52-0.39,7.65-1.18c2.12-0.78,3.76-2.17,4.9-4.15s1.72-4.77,1.72-8.36c0-4.58-1.19-8.07-3.58-10.47
			c-2.38-2.4-6.11-3.6-11.17-3.6c-0.39,0-0.78,0-1.15,0c-0.38,0-0.79,0.03-1.25,0.1v27.52c0.49,0.03,0.97,0.06,1.45,0.1
			C316.29,428,316.77,428.01,317.26,428.01z"/>
		<path fill="#010101" d="M354.22,429.84H340.1v-1.44c1.5,0,2.59-0.11,3.26-0.34c0.67-0.22,1.1-0.68,1.3-1.37
			c0.2-0.69,0.29-1.74,0.29-3.15v-18.92c0-1.25-0.08-2.23-0.25-2.95c-0.16-0.72-0.58-1.22-1.25-1.51c-0.67-0.29-1.79-0.43-3.36-0.43
			v-1.44h14.12v1.44c-1.54,0-2.65,0.14-3.33,0.43c-0.69,0.29-1.1,0.79-1.25,1.51c-0.15,0.72-0.22,1.71-0.22,2.95v9.03h0.25
			l7.94-7.59c1.14-1.06,2.01-1.95,2.6-2.69c0.59-0.74,0.88-1.46,0.88-2.16c0-0.51-0.14-0.89-0.42-1.13s-0.76-0.36-1.45-0.36h-0.78
			v-1.44h12.01v1.44c-0.92,0.03-1.69,0.16-2.33,0.38c-0.64,0.22-1.26,0.57-1.86,1.03c-0.61,0.46-1.35,1.1-2.23,1.9l-10.63,9.75
			l14.07,13.54c0.82,0.74,1.57,1.27,2.25,1.58c0.69,0.32,1.63,0.48,2.84,0.48v1.44h-14.16v-1.44h0.98c0.69,0,1.18-0.07,1.47-0.22
			c0.29-0.14,0.44-0.39,0.44-0.74c0-0.54-0.25-1.15-0.74-1.83c-0.49-0.67-1.26-1.53-2.3-2.57s-2.4-2.35-4.07-3.91l-4.31-4.23h-0.44
			v8.64c0,1.34,0.1,2.36,0.29,3.05s0.64,1.16,1.32,1.42c0.69,0.26,1.75,0.38,3.19,0.38V429.84z"/>
		<path fill="#010101" d="M400.09,429.84h-26.17v-1.44c1.34,0,2.34-0.09,3.01-0.26c0.67-0.18,1.13-0.57,1.37-1.18
			c0.25-0.61,0.37-1.54,0.37-2.79v-20.03c0-1.22-0.12-2.14-0.37-2.79c-0.25-0.64-0.7-1.07-1.37-1.3c-0.67-0.22-1.67-0.34-3.01-0.34
			v-1.44h25.73l0.29,7.88h-1.57c-0.23-1.6-0.58-2.81-1.05-3.63c-0.47-0.82-1.24-1.37-2.3-1.66c-1.06-0.29-2.61-0.43-4.63-0.43h-7.2
			v12.2h5.73c1.5,0,2.65-0.13,3.43-0.38c0.78-0.26,1.32-0.74,1.62-1.44c0.29-0.7,0.44-1.7,0.44-2.98h1.57v11.14h-1.57
			c0-1.31-0.15-2.29-0.44-2.93c-0.29-0.64-0.83-1.06-1.62-1.25c-0.78-0.19-1.93-0.29-3.43-0.29h-5.73v13.21h6.32
			c1.89,0,3.42-0.09,4.58-0.26c1.16-0.18,2.08-0.5,2.75-0.98c0.67-0.48,1.22-1.17,1.67-2.07c0.44-0.9,0.91-2.07,1.4-3.51h1.57
			L400.09,429.84z"/>
		<path fill="#010101" d="M418.03,429.84h-13.77v-1.44c1.24,0,2.17-0.1,2.79-0.29c0.62-0.19,1.04-0.61,1.25-1.25
			c0.21-0.64,0.32-1.63,0.32-2.98v-20.6c0-0.9-0.09-1.6-0.27-2.11c-0.18-0.51-0.58-0.88-1.2-1.1c-0.62-0.22-1.58-0.34-2.89-0.34
			v-1.44h12.06c2.45,0,4.63,0.23,6.54,0.7c1.91,0.46,3.41,1.27,4.48,2.4c1.08,1.14,1.62,2.73,1.62,4.78c0,1.79-0.42,3.25-1.25,4.37
			c-0.83,1.12-1.88,1.99-3.14,2.62s-2.56,1.1-3.9,1.42v0.19c0.56,0.32,1.18,0.87,1.89,1.66c0.7,0.79,1.61,1.94,2.72,3.46
			c1.11,1.52,2.56,3.55,4.36,6.08c0.78,1.06,1.54,1.73,2.28,2.02s1.66,0.43,2.77,0.43v1.44h-8.09c-1.34-1.98-2.46-3.64-3.36-4.97
			c-0.9-1.33-1.66-2.45-2.28-3.36s-1.18-1.72-1.67-2.43c-0.49-0.7-0.98-1.41-1.47-2.11c-0.49-0.74-0.94-1.18-1.35-1.34
			s-1.05-0.24-1.94-0.24h-1.37v8.5c0,1.31,0.11,2.3,0.34,2.95c0.23,0.66,0.69,1.08,1.37,1.27c0.69,0.19,1.73,0.29,3.14,0.29V429.84z
			 M413.18,413.51l1.86,0.05c1.8-0.1,3.37-0.38,4.71-0.86c1.34-0.48,2.38-1.23,3.14-2.26c0.75-1.02,1.13-2.38,1.13-4.08
			c0-1.92-0.61-3.43-1.81-4.54c-1.21-1.11-3.14-1.66-5.78-1.66c-0.52,0-1.06,0.01-1.62,0.02c-0.56,0.02-1.09,0.06-1.62,0.12V413.51z
			"/>
		<path fill="#010101" d="M449.54,429.84h-14.12v-1.44c1.47,0,2.55-0.12,3.24-0.36c0.69-0.24,1.13-0.7,1.32-1.39
			c0.2-0.69,0.29-1.72,0.29-3.1v-18.92c0-1.25-0.08-2.23-0.25-2.95c-0.16-0.72-0.58-1.22-1.25-1.51c-0.67-0.29-1.79-0.43-3.36-0.43
			v-1.44h14.12v1.44c-1.54,0-2.65,0.14-3.33,0.43c-0.69,0.29-1.1,0.79-1.25,1.51c-0.15,0.72-0.22,1.71-0.22,2.95v18.92
			c0,1.38,0.1,2.41,0.29,3.1s0.64,1.15,1.32,1.39c0.69,0.24,1.75,0.36,3.19,0.36V429.84z"/>
	</g>
	<rect x="32.92" y="33.06" fill="none" stroke="#010101" stroke-miterlimit="10" width="433.69" height="433.69"/>
	<line fill="none" stroke="#010101" stroke-miterlimit="10" x1="32.92" y1="33.06" x2="42.91" y2="43.06"/>
	<line fill="none" stroke="#010101" stroke-miterlimit="10" x1="32.92" y1="466.75" x2="42.91" y2="456.75"/>
	<line fill="none" stroke="#010101" stroke-miterlimit="10" x1="456.61" y1="456.75" x2="466.62" y2="466.75"/>
	<line fill="none" stroke="#010101" stroke-miterlimit="10" x1="466.62" y1="33.06" x2="456.61" y2="43.06"/>
	<rect x="42.91" y="372.8" fill="none" stroke="#010101" stroke-miterlimit="10" width="413.7" height="83.95"/>
	<rect x="42.91" y="43.06" fill="none" stroke="#010101" stroke-miterlimit="10" width="413.7" height="64.84"/>
	<rect x="118.36" y="117.95" fill="none" stroke="#010101" stroke-miterlimit="10" width="263.92" height="245.38"/>
	<rect x="392.06" y="117.95" fill="none" stroke="#010101" stroke-miterlimit="10" width="64.56" height="245.38"/>
	<rect x="42.91" y="117.95" fill="none" stroke="#010101" stroke-miterlimit="10" width="65.27" height="245.38"/>
	<g>
		<g>
			<path fill="#010101" d="M310.58,363.33h-16.8V254.63c0-4.75-1.68-8.79-5.04-12.1c-3.36-3.31-7.43-4.97-12.21-4.97
				c-4.93,0-9.11,1.66-12.55,4.97c-3.44,3.32-5.15,7.35-5.15,12.1v108.69H241.8V254.63c0-4.75-1.72-8.79-5.15-12.1
				c-3.44-3.31-7.62-4.97-12.55-4.97c-4.78,0-8.85,1.66-12.21,4.97c-3.36,3.32-5.04,7.35-5.04,12.1v108.69h-17.03V254.63
				c0-9.22,3.36-17.07,10.08-23.55c6.72-6.48,14.79-9.72,24.2-9.72c10.16,0,18.89,3.89,26.21,11.67
				c7.02-7.78,15.76-11.67,26.21-11.67c9.26,0,17.25,3.32,23.97,9.94c6.72,6.63,10.08,14.41,10.08,23.34V363.33z"/>
		</g>
		<g>
			<g>
				<path fill="#010101" d="M287.54,224.68c-10.18,0-21.15-5.52-21.15-16.36c0-10.02,6.19-12.26,11.58-12.26
					c5.19,0,11.58,2.04,16.76,2.04c5.59,0,13.97-2.45,13.97-10.02c0-6.79-8.75-6.87-12.88-6.87c-21.06,0-34.13,7.72-47,19.05
					c-12.37,10.84-24.35,23.39-42.71,23.39c-12.02,0-23.15-8.54-23.15-27.39c0-20.85,10.18-30.87,30.14-30.87
					c10.18,0,21.15,5.52,21.15,16.36c0,10.02-6.19,12.26-11.58,12.26c-5.19,0-11.58-2.04-16.76-2.04c-5.59,0-13.97,2.45-13.97,10.02
					c0,6.95,9.18,8.21,13.17,8.21c20.96,0,33.93-9.15,46.7-20.39c12.37-10.84,24.35-23.39,42.71-23.39
					c11.63,0,23.15,7.75,23.15,27.39C317.67,214.67,307.49,224.68,287.54,224.68z"/>
			</g>
		</g>
		<g>
			<rect x="118.36" y="347.66" fill="#010101" width="88.49" height="15.66"/>
		</g>
		<g>
			<rect x="293.78" y="347.66" fill="#010101" width="88.5" height="15.66"/>
		</g>
	</g>
</g>
</svg>
